# xmcd
#
# Track frame offsets:
#       150
#       9852
#       26515
#       44687
#       63954
#       99536
#       124359
#       149934
#       187743
#       219185
#
# Disc length: 3399 seconds
#
# Revision: 0
# Processed by: cddbd v1.5.2PL0 Copyright (c) Steve Scherf et al.
# Submitted via: WaveLab 6.11
#
DISCID=8a0d450a
DTITLE=Pat Loiselle Blues Combo - Live !
DYEAR=2012
DGENRE=
TTITLE0=Jumpin' Bad
TTITLE1=She's Tuff
TTITLE2=Te-Ni-Nee-Ni-Nu
TTITLE3=Noche de Perros
TTITLE4=Rollin' n Thumblin'
TTITLE5=Cry To Me
TTITLE6=Nela
TTITLE7=Blue and Lonesome
TTITLE8=Hawaiian Eye
TTITLE9=Rock This House
EXTD=
EXTT0=
EXTT1=
EXTT2=
EXTT3=
EXTT4=
EXTT5=
EXTT6=
EXTT7=
EXTT8=
EXTT9=
PLAYORDER=
